Coordinates
version=1
nRows=13
nColumns=40
inDegrees=yes

Units are S.I. units (second, meters, Newtons, ...)
Angles are in degrees.

endheader
time	pelvis_tilt	pelvis_list	pelvis_rotation	pelvis_tx	pelvis_ty	pelvis_tz	hip_flexion_r	hip_adduction_r	hip_rotation_r	knee_angle_r	knee_angle_r_beta	ankle_angle_r	subtalar_angle_r	mtp_angle_r	hip_flexion_l	hip_adduction_l	hip_rotation_l	knee_angle_l	knee_angle_l_beta	ankle_angle_l	subtalar_angle_l	mtp_angle_l	lumbar_extension	lumbar_bending	lumbar_rotation	arm_flex_r	arm_add_r	arm_rot_r	elbow_flex_r	pro_sup_r	wrist_flex_r	wrist_dev_r	arm_flex_l	arm_add_l	arm_rot_l	elbow_flex_l	pro_sup_l	wrist_flex_l	wrist_dev_l
     18.95000000	     -6.08743540	     -6.86926261	      9.72603575	      1.01998573	      0.92390219	      0.46510053	      4.39775823	      4.27112805	    -19.19747100	      8.68695806	      8.68695806	     12.32324138	      3.95680197	     -5.21095323	     29.74994373	     -9.07015633	      0.44759372	     25.40741190	     25.40741190	      7.96526238	    -10.62083890	      7.20636237	     -9.20603261	      6.21438191	      4.72540478	     35.71273330	    -19.22517303	      1.66528084	     83.18961460	     44.53020414	      0.00000000	      0.00000000	      0.47716994	     -8.95152681	    -12.84562131	     25.92567674	     47.17420916	      0.00000000	      0.00000000
     18.96285714	     -5.97070579	     -6.87852256	      9.52102680	      1.02085557	      0.92356924	      0.46264338	      3.84043319	      4.19173722	    -18.95889696	      8.71596961	      8.71596961	     12.61337606	      4.05826154	     -5.16164298	     29.01862884	     -9.07299821	      0.03453576	     25.32637798	     25.32637798	      8.09234139	    -10.84468948	      6.92894608	     -9.01256341	      6.10965612	      4.69990939	     34.79752393	    -18.97955595	      2.08463323	     82.84862841	     44.52994392	      0.00000000	      0.00000000	      0.63685726	     -9.14478968	    -12.94910464	     26.00034830	     47.18936875	      0.00000000	      0.00000000
     18.97571429	     -5.87505540	     -6.95021165	      9.34667034	      1.02153152	      0.92327739	      0.46008349	      3.39677442	      4.13883317	    -18.74411497	      8.87096810	      8.87096810	     12.86254123	      4.11675044	     -5.18970939	     28.47637182	     -9.10781825	     -0.16390494	     25.47521294	     25.47521294	      8.37066521	    -11.12564141	      6.72824964	     -8.83602664	      6.10275380	      4.61419818	     33.81563559	    -18.65248040	      2.43344673	     82.56036468	     44.52593728	      0.00000000	      0.00000000	      0.84105827	     -9.35239036	    -12.99578805	     26.08134524	     47.19958349	      0.00000000	      0.00000000
     18.98857143	     -5.73860630	     -6.91469129	      9.23515517	      1.02210976	      0.92326561	      0.45726382	      2.94208269	      3.94222688	    -18.58392494	      9.10876911	      9.10876911	     13.06551021	      4.09196722	     -5.16083112	     27.92731651	     -9.00596077	     -0.26841242	     25.68811861	     25.68811861	      8.66282834	    -11.37140728	      6.47978086	     -8.73074684	      5.98084213	      4.47612501	     32.62062223	    -18.38439674	      2.83355485	     82.14240546	     44.52386559	      0.00000000	      0.00000000	      1.11926475	     -9.56784869	    -13.04616404	     26.19344197	     47.21140278	      0.00000000	      0.00000000
     19.00142857	     -5.60067496	     -6.84833681	      9.15012116	      1.02251940	      0.92345550	      0.45423405	      2.55428786	      3.67311220	    -18.44308844	      9.46619842	      9.46619842	     13.24712458	      4.01558172	     -5.10680769	     27.40743035	     -8.84633643	     -0.28904955	     25.91900589	     25.91900589	      8.98087600	    -11.61013792	      6.21991274	     -8.67819055	      5.84874628	      4.32287005	     31.32981215	    -18.18983841	      3.24238811	     81.62000986	     44.52465369	      0.00000000	      0.00000000	      1.47768825	     -9.78894241	    -13.09842179	     26.34284448	     47.22472161	      0.00000000	      0.00000000
     19.01428571	     -5.58160656	     -6.66363394	      9.00244941	      1.02258367	      0.92369829	      0.45103644	      2.62369834	      3.11606186	    -18.26314579	     10.49342341	     10.49342341	     13.72389292	      3.78945205	     -4.64881259	     26.92212023	     -8.52208368	     -0.30057560	     25.97681602	     25.97681602	      9.10911266	    -12.03521347	      5.76479881	     -8.54074293	      5.55957097	      4.53205896	     29.99140745	    -18.58427408	      3.89982459	     80.41116331	     44.54902858	      0.00000000	      0.00000000	      2.11514410	     -9.90935194	    -13.27533441	     26.60316595	     47.25297397	      0.00000000	      0.00000000
     19.02714286	     -5.41421213	     -6.65532500	      8.98952996	      1.02270730	      0.92418898	      0.44769635	      2.28139580	      2.87281965	    -18.20427682	     10.92613329	     10.92613329	     13.77658453	      3.70638092	     -4.58081077	     26.45731695	     -8.38011701	     -0.18811492	     26.23894742	     26.23894742	      9.48630027	    -12.20750311	      5.54539718	     -8.58566280	      5.55612413	      4.18649972	     28.57452502	    -18.25919520	      4.26414583	     79.90204911	     44.54988328	      0.00000000	      0.00000000	      2.52167332	    -10.12131039	    -13.31482211	     26.76375564	     47.26491740	      0.00000000	      0.00000000
     19.04000000	     -5.42237956	     -6.45553974	      8.85573492	      1.02246186	      0.92460614	      0.44427255	      2.58409426	      2.20117275	    -18.12107108	     12.31031224	     12.31031224	     14.21178811	      3.48114953	     -4.20725890	     26.02335637	     -8.03178770	     -0.26946205	     26.27666102	     26.27666102	      9.74820493	    -12.40767881	      5.34254982	     -8.46177103	      5.29221220	      4.39295070	     27.05303721	    -18.49187760	      4.61287260	     78.44039349	     44.59161777	      0.00000000	      0.00000000	      3.21406176	    -10.22685667	    -13.48281103	     27.14075121	     47.29035061	      0.00000000	      0.00000000
     19.05285714	     -5.25358356	     -6.45322759	      8.84806441	      1.02239603	      0.92533617	      0.44076028	      2.37368371	      1.90398648	    -18.08322251	     12.96628941	     12.96628941	     14.19184176	      3.36219961	     -4.14770592	     25.49594840	     -7.89477511	     -0.24337581	     26.38630959	     26.38630959	     10.12413727	    -12.45672805	      5.18506735	     -8.54655003	      5.32546568	      4.06685623	     25.46358368	    -18.20046437	      4.93496605	     77.72171836	     44.60044775	      0.00000000	      0.00000000	      3.66287306	    -10.45355858	    -13.53384969	     27.36799437	     47.30358871	      0.00000000	      0.00000000
     19.06571429	     -5.31182647	     -6.20062413	      8.65085116	      1.02191710	      0.92586963	      0.43728899	      2.90890938	      1.09777590	    -17.94408892	     14.65495557	     14.65495557	     14.49708009	      3.08768219	     -4.09881336	     24.98884333	     -7.54628436	     -0.64701056	     26.20670587	     26.20670587	     10.44447018	    -12.26216915	      5.06319017	     -8.44402720	      5.02582617	      4.39499556	     23.83777835	    -18.44203751	      5.02458832	     75.92699072	     44.65845664	      0.00000000	      0.00000000	      4.42299742	    -10.52729936	    -13.66136539	     27.96662858	     47.32431429	      0.00000000	      0.00000000
     19.07857143	     -5.14916930	     -6.26080920	      8.62694605	      1.02170091	      0.92671135	      0.43380064	      2.87118626	      0.81319152	    -17.90799505	     15.57344745	     15.57344745	     14.40880893	      2.92212858	     -4.12639982	     24.38544525	     -7.48333781	     -0.69558523	     26.13377857	     26.13377857	     10.79601291	    -12.16342238	      4.93745871	     -8.52079060	      5.17864634	      4.10729475	     22.12335998	    -18.11473425	      5.29731847	     74.99516124	     44.67528356	      0.00000000	      0.00000000	      4.87510922	    -10.76163793	    -13.71624168	     28.27092873	     47.33724218	      0.00000000	      0.00000000
     19.09142857	     -5.27179271	     -5.93717205	      8.35707231	      1.02106332	      0.92722777	      0.43043821	      3.69973510	     -0.14388170	    -17.64346092	     17.65269567	     17.65269567	     14.58500808	      2.49977171	     -4.39761212	     23.81280941	     -7.10774779	     -1.40013134	     25.74269319	     25.74269319	     11.09821186	    -11.69114042	      4.75319751	     -8.38462461	      4.77398312	      4.52954882	     20.46074808	    -18.31091440	      5.23813203	     72.84151741	     44.74852209	      0.00000000	      0.00000000	      5.65063225	    -10.82696729	    -13.81983035	     29.08075671	     47.35451195	      0.00000000	      0.00000000
     19.10428571	     -5.33330972	     -5.85394037	      8.16428606	      1.02042733	      0.92776469	      0.42715704	      4.41058141	     -0.78101852	    -17.42056950	     19.51933550	     19.51933550	     14.57452636	      2.12933149	     -4.66150896	     23.29313841	     -6.95244493	     -1.87192258	     25.44391147	     25.44391147	     11.37224117	    -11.29078895	      4.49483421	     -8.27713882	      4.71208057	      4.63673079	     18.91374026	    -18.09080198	      5.04064506	     70.57804473	     44.83226693	      0.00000000	      0.00000000	      6.18087394	    -10.97901673	    -13.92589572	     29.90790722	     47.36379251	      0.00000000	      0.00000000
